<svg id="Layer_1" data-name="Layer 1" xmlns="http://www.w3.org/2000/svg" viewBox="0 0 850.3937 124.1984"><defs><style>.cls-1{fill:#fff;}</style></defs><path class="cls-1" d="M157.223,64.78828V13.93582h10.382V64.78828Z"/><path class="cls-1" d="M218.019,64.78828,194.70139,32.96519V64.78828H184.31294V13.93582h9.15035L217.00013,45.8234V13.93582H227.395V64.78828Z"/><path class="cls-1" d="M261.81684,21.92545c-3.48216,0-6.60966,1.74108-6.60966,5.08782,0,3.92066,4.7912,5.01045,8.7183,6.39042,7.19,2.46975,15.83739,5.81005,15.83739,16.48868,0,11.04619-10.38845,15.76645-19.24861,15.76645-7.84777,0-13.95445-2.97918-19.47432-8.49905l6.89984-6.758c4.13991,3.998,7.33834,6.39686,12.64541,6.39686,4.069,0,8.067-1.96678,8.067-6.4678,0-4.35915-4.65578-6.0293-9.81454-7.91869-6.60966-2.46976-14.01893-5.378-14.01893-15.10872,0-9.66622,8.20888-14.23817,16.637-14.23817,6.53873,0,11.69748,2.10219,16.85624,6.0293l-5.95836,7.40927C269.51629,24.105,265.7375,21.92545,261.81684,21.92545Z"/><path class="cls-1" d="M293.26592,64.78828V13.93582h10.38845V64.78828Z"/><path class="cls-1" d="M344.91155,44.23063V35.435h22.59536V55.27037c-5.30063,7.11909-13.36763,10.38845-22.15687,10.38845-15.39889,0-27.09638-10.67863-27.09638-26.29677,0-14.89591,12.136-26.29677,27.09638-26.29677,8.57644,0,15.76,3.55954,21.35726,10.02089l-7.19,6.24854c-3.55954-4.1399-8.35074-7.19-14.16724-7.19-9.22128,0-15.97925,7.55113-15.97925,17.21735,0,10.1692,6.31948,17.21736,15.97925,17.21736a17.40275,17.40275,0,0,0,11.76842-4.72671V44.23063Z"/><path class="cls-1" d="M415.30281,64.78828V42.99253H393.7263V64.78828H383.3314V13.93582h10.3949V34.20329h21.57651V13.93582h10.382V64.78828Z"/><path class="cls-1" d="M459.74551,22.72506V64.78828h-10.382V22.72506h-12.0586V13.93582h34.50565v8.78924Z"/><path class="cls-1" d="M523.52711,18.00479c-6.24854,0-10.24658,2.97918-10.24658,7.9187,0,5.66173,6.758,7.40926,13.43857,9.879,6.6161,2.46975,13.22576,5.66174,13.22576,14.16724,0,11.40086-9.94995,15.68907-17.21735,15.68907-7.19,0-12.64541-2.03771-17.86865-7.19l4.06252-3.63692c5.01689,5.08782,8.86662,5.88743,13.87706,5.88743,5.8165,0,11.40731-3.05011,11.40731-9.879,0-6.10668-5.81006-8.35719-11.98767-10.67863-6.97722-2.61807-14.45742-5.22969-14.45742-13.51595,0-9.29866,6.89984-13.58043,14.89591-13.58043a24.12735,24.12735,0,0,1,15.10872,4.86213l-3.55954,3.9271C532.02617,19.67494,527.5187,18.00479,523.52711,18.00479Z"/><path class="cls-1" d="M571.83244,43.06346V64.78828h-5.378V42.051l-15.5472-28.11523h6.60966l12.05859,22.73723h.21925l12.27785-22.73723h6.17761Z"/><path class="cls-1" d="M615.47554,18.00479c-6.2421,0-10.24014,2.97918-10.24014,7.9187,0,5.66173,6.758,7.40926,13.43857,9.879,6.60966,2.46975,13.21932,5.66174,13.21932,14.16724,0,11.40086-9.95,15.68907-17.21736,15.68907-7.19,0-12.639-2.03771-17.86865-7.19l4.069-3.63692c5.01045,5.08782,8.86017,5.88743,13.87706,5.88743,5.81,0,11.40086-3.05011,11.40086-9.879,0-6.10668-5.81005-8.35719-11.98122-10.67863-6.97722-2.61807-14.45742-5.22969-14.45742-13.51595,0-9.29866,6.89984-13.58043,14.88947-13.58043a24.1145,24.1145,0,0,1,15.10871,4.86213l-3.55954,3.9271C623.97459,19.67494,619.47358,18.00479,615.47554,18.00479Z"/><path class="cls-1" d="M663.19406,18.87533V64.78828h-5.378V18.87533H644.67411V13.93582h31.67478v4.93951Z"/><path class="cls-1" d="M691.01266,64.78828V13.93582H720.5788v4.93951H696.39067V36.02176H720.5788v4.93951H696.39067v18.8875H720.5788v4.93951Z"/><path class="cls-1" d="M790.52512,64.78828h-5.37156V18.295L766.40792,64.78828h-3.998L743.88994,18.43684V64.78828h-5.378V13.93582h9.29866l16.637,42.276,16.71438-42.276h9.36315Z"/><path class="cls-1" d="M825.60467,18.00479c-6.24209,0-10.24013,2.97918-10.24013,7.9187,0,5.66173,6.758,7.40926,13.43856,9.879,6.60966,2.46975,13.21932,5.66174,13.21932,14.16724,0,11.40086-9.95,15.68907-17.21735,15.68907-7.19,0-12.639-2.03771-17.86865-7.19l4.069-3.63692c5.01044,5.08782,8.86016,5.88743,13.87706,5.88743,5.81005,0,11.40085-3.05011,11.40085-9.879,0-6.10668-5.81005-8.35719-11.98121-10.67863-6.97722-2.61807-14.45742-5.22969-14.45742-13.51595,0-9.29866,6.89984-13.58043,14.88946-13.58043a24.11451,24.11451,0,0,1,15.10872,4.86213l-3.55955,3.9271C834.10373,19.67494,829.60271,18.00479,825.60467,18.00479Z"/><path class="cls-1" d="M112.75491,99.81126C100.097,67.10471,63.51878,41.58519,27.19408,36.49683a90.81587,90.81587,0,0,0-18.92021-.78676V49.75519a95.944,95.944,0,0,1,18.92021,1.96406c28.21773,5.68838,51.90969,23.72988,65.87709,48.092a101.68329,101.68329,0,0,1,7.73443,16.69831,21.771,21.771,0,0,0,14.2494-9.90372A71.639,71.639,0,0,0,112.75491,99.81126Z"/><path class="cls-1" d="M66.39757,99.81126a88.15983,88.15983,0,0,0-39.20349-34.5834A93.24143,93.24143,0,0,0,8.27387,58.95651V71.15322a96.30775,96.30775,0,0,1,18.92021,9.82789A95.77081,95.77081,0,0,1,48.0954,99.81126a98.06033,98.06033,0,0,1,11.45544,17.13529H74.33628A84.37614,84.37614,0,0,0,66.39757,99.81126Z"/><path class="cls-1" d="M118.00962,24.2423A21.898,21.898,0,0,0,96.56609,6.76671H30.161a21.65221,21.65221,0,0,0-2.92239.29385c-.01612.00284-.03034.00853-.04455.01043A21.77416,21.77416,0,0,0,8.47388,26.50211a89.57,89.57,0,0,1,18.7202-2.62c33.87626-1.32233,68.78005,15.57978,91.25964,41.98844V28.65386A22.00283,22.00283,0,0,0,118.00962,24.2423Z"/><path class="cls-1" d="M8.27387,82.0494v13.01c0,.09195.0256.17726.0256.26921A21.87243,21.87243,0,0,0,30.161,116.94655h7.54107A90.52326,90.52326,0,0,0,8.27387,82.0494Z"/><path class="cls-1" d="M183.03617,102.36251h.0769l4.64611-16.4184h6.29308l-7.908,25.653h-5.58815l-4.99858-16.86058h-.0769l-5.15879,16.86058h-5.38949l-7.70934-25.653h6.29308l4.52435,16.4184h.08331l4.91527-16.4184h5.27414Z"/><path class="cls-1" d="M219.37838,112.03925c-8.18356,0-14.43819-5.94062-14.43819-13.27187,0-7.32483,6.25463-13.26545,14.43819-13.26545,8.15153,0,14.40615,5.94062,14.40615,13.26545C233.78453,106.09863,227.52991,112.03925,219.37838,112.03925Zm0-21.95529a8.69216,8.69216,0,1,0,8.38223,8.68342A8.36872,8.36872,0,0,0,219.37838,90.084Z"/><path class="cls-1" d="M256.12432,85.94411c4.44746,0,10.07406,2.1276,10.07406,7.69653,0,3.99245-2.90943,6.19054-5.97907,7.1454,2.44161,3.1914,6.53019,8.42709,8.42068,10.811h-7.08132l-7.55554-10.22785h-.98689v10.22785h-5.62661v-25.653ZM253.01624,96.941h2.2045c2.83252,0,4.96012-.95485,4.96012-3.1914,0-2.01865-1.69182-3.37083-4.21034-3.37083h-2.95428Z"/><path class="cls-1" d="M293.71618,96.313l9.56138,15.2841h-6.56864l-6.80576-11.10581-2.95428,3.26189v7.84392h-5.62661v-25.653h5.62661V96.46035l9.28581-10.51624h6.81216Z"/><path class="cls-1" d="M323.88066,85.94411c4.68457,0,10.31117,2.1276,10.31117,7.95287,0,5.90216-5.58815,8.02335-10.31117,8.02335h-3.14654v9.67673h-5.6266v-25.653ZM320.73412,97.4857h2.243c2.99274,0,5.23569-.91641,5.23569-3.47978,0-2.275-1.81358-3.62717-4.4859-3.62717h-2.99274Z"/><path class="cls-1" d="M346.64341,111.59706v-25.653H352.27v21.21832h11.29166v4.43463Z"/><path class="cls-1" d="M393.64925,111.59706l-1.76873-4.76146H382.082l-1.852,4.76146h-6.25463l11.2532-25.653h4.5628l10.34962,25.653Zm-9.91384-9.05511h6.56864l-3.185-8.60652h-.03845Z"/><path class="cls-1" d="M425.03134,107.45722a9.44522,9.44522,0,0,0,5.86371-2.1276l3.15295,3.813a15.82664,15.82664,0,0,1-9.25378,2.89662c-8.26046,0-14.43819-5.42795-14.43819-13.27187,0-7.51068,6.56864-13.26545,14.67531-13.26545a16.18064,16.18064,0,0,1,8.46553,2.49288l-2.71717,4.06936a9.99009,9.99009,0,0,0-5.74836-1.98021,8.49032,8.49032,0,0,0-8.65779,8.68342C416.37355,103.90054,419.64185,107.45722,425.03134,107.45722Z"/><path class="cls-1" d="M446.65338,111.59706v-25.653h17.668v4.43464H452.28v5.78681h12.04145v4.43464H452.28v6.56223h12.04145v4.43463Z"/><path class="cls-1" d="M505.90573,90.37875v21.21831h-5.633V90.37875h-6.53019V85.94411h18.69339v4.43464Z"/><path class="cls-1" d="M524.41328,111.59706v-25.653h17.668v4.43464H530.03988v5.78681h12.04145v4.43464H530.03988v6.56223h12.04145v4.43463Z"/><path class="cls-1" d="M569.36842,107.45722a9.44523,9.44523,0,0,0,5.86372-2.1276l3.153,3.813a15.82134,15.82134,0,0,1-9.24737,2.89662c-8.26688,0-14.4446-5.42795-14.4446-13.27187,0-7.51068,6.56864-13.26545,14.6753-13.26545a16.18065,16.18065,0,0,1,8.46554,2.49288l-2.71717,4.06936a9.99012,9.99012,0,0,0-5.74837-1.98021,8.49033,8.49033,0,0,0-8.65779,8.68342C560.71063,103.90054,563.97893,107.45722,569.36842,107.45722Z"/><path class="cls-1" d="M608.30605,111.59706V100.6002h-11.689v10.99686h-5.6266v-25.653h5.6266V96.16556h11.689V85.94411h5.6266v25.653Z"/><path class="cls-1" d="M646.92325,111.59706l-12.631-16.05312v16.05312h-5.62661v-25.653h4.96013l12.74637,16.08517V85.94411h5.6266v25.653Z"/><path class="cls-1" d="M680.00357,112.03925c-8.18356,0-14.43819-5.94062-14.43819-13.27187,0-7.32483,6.25463-13.26545,14.43819-13.26545,8.15153,0,14.40616,5.94062,14.40616,13.26545C694.40973,106.09863,688.1551,112.03925,680.00357,112.03925Zm0-21.95529a8.69216,8.69216,0,1,0,8.38223,8.68342A8.36871,8.36871,0,0,0,680.00357,90.084Z"/><path class="cls-1" d="M708.00842,111.59706v-25.653h5.6266v21.21832h11.29165v4.43463Z"/><path class="cls-1" d="M748.88139,112.03925c-8.19,0-14.4446-5.94062-14.4446-13.27187,0-7.32483,6.25462-13.26545,14.4446-13.26545,8.14511,0,14.39974,5.94062,14.39974,13.26545C763.28113,106.09863,757.0265,112.03925,748.88139,112.03925Zm0-21.95529a8.6924,8.6924,0,1,0,8.37582,8.68342A8.37007,8.37007,0,0,0,748.88139,90.084Z"/><path class="cls-1" d="M790.17732,101.22822V96.79359h12.2401v10.00356c-2.871,3.58872-7.24153,5.2421-12.003,5.2421-8.33737,0-14.67531-5.3895-14.67531-13.27187,0-7.51068,6.56864-13.26545,14.67531-13.26545a15.30545,15.30545,0,0,1,11.57363,5.05626l-3.89633,3.15294a10.41343,10.41343,0,0,0-7.6773-3.62717,8.49032,8.49032,0,0,0-8.65779,8.68342c0,5.13316,3.42851,8.68984,8.65779,8.68984a9.83775,9.83775,0,0,0,6.37639-2.38394v-3.84506Z"/><path class="cls-1" d="M822.5463,111.59706V100.85653l-8.77314-14.91242h7.00441l4.76147,9.23455h.0769l5.19083-9.23455h6.575l-9.20892,15.05982v10.59313Z"/></svg>