<svg width="346" height="50" viewBox="0 0 346 50" fill="none" xmlns="http://www.w3.org/2000/svg">
<path d="M63.9697 26.0826V5.61035H68.1939V26.0826H63.9697Z" fill="black"/>
<path d="M88.7052 26.0826L79.218 13.2712V26.0826H74.9912V5.61035H78.7142L88.2907 18.4477V5.61035H92.52V26.0826H88.7052Z" fill="black"/>
<path d="M106.526 8.82672C105.109 8.82672 103.836 9.52765 103.836 10.875C103.836 12.4534 105.786 12.8921 107.384 13.4476C110.309 14.4419 113.827 15.7867 113.827 20.0857C113.827 24.5327 109.601 26.433 105.996 26.433C102.803 26.433 100.318 25.2336 98.0723 23.0114L100.88 20.2908C102.564 21.9003 103.865 22.866 106.025 22.866C107.68 22.866 109.307 22.0742 109.307 20.2622C109.307 18.5073 107.413 17.8349 105.314 17.0743C102.624 16.08 99.6097 14.9092 99.6097 10.9918C99.6097 7.10035 102.95 5.25977 106.379 5.25977C109.039 5.25977 111.138 6.10607 113.237 7.68705L110.813 10.6699C109.658 9.70417 108.121 8.82672 106.526 8.82672Z" fill="black"/>
<path d="M119.321 26.0826V5.61035H123.548V26.0826H119.321Z" fill="black"/>
<path d="M140.335 17.8064V14.2654H149.528V22.2508C147.371 25.1168 144.089 26.433 140.513 26.433C134.248 26.433 129.488 22.1339 129.488 15.8464C129.488 9.84954 134.426 5.25977 140.513 5.25977C144.002 5.25977 146.925 6.69277 149.203 9.29399L146.277 11.8095C144.829 10.1429 142.88 8.91498 140.513 8.91498C136.761 8.91498 134.012 11.9549 134.012 15.8464C134.012 19.9403 136.583 22.7778 140.513 22.7778C142.294 22.762 144.004 22.0825 145.301 20.8749V17.8064H140.335Z" fill="black"/>
<path d="M168.974 26.0826V17.3081H160.195V26.0826H155.966V5.61035H160.195V13.7697H168.974V5.61035H173.198V26.0826H168.974Z" fill="black"/>
<path d="M187.057 9.14874V26.0826H182.833V9.14874H177.927V5.61035H191.966V9.14874H187.057Z" fill="black"/>
<path d="M213.008 7.24838C210.465 7.24838 208.839 8.44775 208.839 10.4363C208.839 12.7156 211.588 13.4191 214.306 14.4134C216.998 15.4077 219.688 16.6927 219.688 20.1169C219.688 24.7067 215.639 26.433 212.682 26.433C209.757 26.433 207.537 25.6127 205.412 23.5385L207.065 22.0743C209.106 24.1226 210.673 24.4445 212.711 24.4445C215.078 24.4445 217.352 23.2165 217.352 20.4674C217.352 18.0089 214.989 17.1029 212.475 16.1683C209.636 15.1144 206.593 14.063 206.593 10.7271C206.593 6.9836 209.4 5.25984 212.653 5.25984C214.867 5.20767 217.033 5.89748 218.801 7.21724L217.352 8.79822C216.466 7.92075 214.632 7.24838 213.008 7.24838Z" fill="black"/>
<path d="M232.661 17.3366V26.0826H230.473V16.929L224.147 5.61035H226.837L231.743 14.7639H231.832L236.828 5.61035H239.341L232.661 17.3366Z" fill="black"/>
<path d="M250.419 7.24843C247.879 7.24843 246.252 8.44779 246.252 10.4363C246.252 12.7157 249.002 13.4192 251.72 14.4135C254.409 15.4077 257.099 16.6928 257.099 20.1169C257.099 24.7067 253.05 26.4331 250.093 26.4331C247.168 26.4331 244.951 25.6127 242.823 23.5385L244.479 22.0743C246.517 24.1226 248.084 24.4445 250.125 24.4445C252.489 24.4445 254.764 23.2166 254.764 20.4674C254.764 18.009 252.4 17.103 249.889 16.1684C247.05 15.1144 244.007 14.063 244.007 10.7271C244.007 6.98364 246.814 5.25988 250.065 5.25988C252.278 5.2073 254.445 5.89716 256.212 7.21728L254.764 8.79826C253.877 7.9208 252.045 7.24843 250.419 7.24843Z" fill="black"/>
<path d="M269.834 7.59891V26.0826H267.646V7.59891H262.299V5.61035H275.186V7.59891H269.834Z" fill="black"/>
<path d="M281.152 26.0826V5.61035H293.182V7.59891H283.341V14.5017H293.182V16.4903H283.341V24.0941H293.182V26.0826H281.152Z" fill="black"/>
<path d="M321.641 26.0826H319.456V7.36528L311.829 26.0826H310.202L302.667 7.42238V26.0826H300.479V5.61035H304.262L311.031 22.6299L317.832 5.61035H321.641V26.0826Z" fill="black"/>
<path d="M335.914 7.24843C333.374 7.24843 331.748 8.44779 331.748 10.4363C331.748 12.7157 334.497 13.4192 337.215 14.4135C339.905 15.4077 342.594 16.6928 342.594 20.1169C342.594 24.7067 338.545 26.4331 335.589 26.4331C332.663 26.4331 330.446 25.6127 328.318 23.5385L329.974 22.0743C332.013 24.1226 333.579 24.4445 335.62 24.4445C337.984 24.4445 340.259 23.2166 340.259 20.4674C340.259 18.009 337.895 17.103 335.384 16.1684C332.545 15.1144 329.502 14.063 329.502 10.7271C329.502 6.98364 332.309 5.25988 335.56 5.25988C337.773 5.2073 339.94 5.89716 341.707 7.21728L340.259 8.79826C339.372 7.9208 337.541 7.24843 335.914 7.24843Z" fill="black"/>
<path d="M45.8764 40.1822C40.7263 27.0151 25.8437 16.7414 11.0643 14.693C8.51643 14.3222 5.93638 14.2161 3.36621 14.3762V20.0305C5.95237 20.0411 8.53106 20.306 11.0643 20.8212C22.5452 23.1113 32.1848 30.3744 37.8677 40.1822C39.1199 42.3243 40.1732 44.5743 41.0146 46.9046C42.2056 46.6689 43.3349 46.1932 44.3323 45.5074C45.3297 44.8215 46.1738 43.9399 46.8123 42.9176C46.5467 41.9909 46.2344 41.0779 45.8764 40.1822Z" fill="#DC1F26"/>
<path d="M27.015 40.1822C23.243 34.0524 17.6815 29.1981 11.0643 26.2596C8.5968 25.1483 6.01604 24.3019 3.36621 23.7349V28.645C6.07232 29.6779 8.65416 31.0049 11.0643 32.6016C14.2607 34.7005 17.1263 37.2549 19.5684 40.1822C21.3626 42.3133 22.9249 44.6255 24.2293 47.0806H30.245C29.4327 44.6688 28.3492 42.3548 27.015 40.1822Z" fill="#DC1F26"/>
<path d="M48.0151 9.75947C47.601 7.77253 46.507 5.98771 44.9176 4.70607C43.3282 3.42443 41.3407 2.72442 39.2904 2.72412H12.2721C11.8735 2.73688 11.4762 2.7764 11.0831 2.84242C11.0765 2.84356 11.0707 2.84585 11.0649 2.84662C9.09143 3.11348 7.2664 4.03059 5.88444 5.44992C4.50248 6.86924 3.64423 8.70795 3.44824 10.6692C5.94243 10.0528 8.49555 9.69925 11.0649 9.61447C24.8482 9.08212 39.0495 15.8866 48.1958 26.5182V11.5355C48.1961 10.939 48.1356 10.3439 48.0151 9.75947Z" fill="#DC1F26"/>
<path d="M3.36621 33.0315V38.2691C3.36621 38.3061 3.37663 38.3404 3.37663 38.3775C3.40387 40.6942 4.35288 42.9071 6.01791 44.5362C7.68294 46.1653 9.92981 47.0794 12.2714 47.0804H15.3397C12.627 41.4623 8.50477 36.6255 3.36621 33.0315Z" fill="#DC1F26"/>
<path d="M74.4723 41.2094H74.5036L76.394 34.5996H78.9545L75.7369 44.927H73.4633L71.4295 38.1393H71.3982L69.2992 44.927H67.1064L63.9697 34.5996H66.5302L68.371 41.2094H68.4049L70.4048 34.5996H72.5507L74.4723 41.2094Z" fill="#DC1F26"/>
<path d="M89.2583 45.1048C85.9286 45.1048 83.3838 42.7132 83.3838 39.7618C83.3838 36.813 85.9286 34.4214 89.2583 34.4214C92.5749 34.4214 95.1197 36.813 95.1197 39.7618C95.1197 42.7132 92.5749 45.1048 89.2583 45.1048ZM89.2583 36.266C88.5592 36.2414 87.8685 36.4223 87.2734 36.7861C86.6784 37.1498 86.2057 37.68 85.9151 38.3096C85.6246 38.9391 85.5292 39.6398 85.6411 40.323C85.7531 41.0062 86.0672 41.6412 86.5438 42.1477C87.0205 42.6542 87.6382 43.0095 88.319 43.1686C88.9997 43.3278 89.7128 43.2836 90.3682 43.0417C91.0236 42.7998 91.5917 42.3711 92.0008 41.8097C92.4099 41.2483 92.6416 40.5795 92.6665 39.8879C92.668 39.8459 92.6688 39.8039 92.6687 39.7618C92.6856 39.3197 92.6142 38.8786 92.4587 38.4638C92.3033 38.049 92.0668 37.6685 91.7627 37.3441C91.4586 37.0197 91.0929 36.7577 90.6866 36.5732C90.2802 36.3886 89.841 36.2851 89.3942 36.2684C89.3489 36.2667 89.3036 36.2659 89.2583 36.266V36.266Z" fill="#DC1F26"/>
<path d="M104.209 34.5994C106.019 34.5994 108.308 35.4559 108.308 37.6979C108.308 39.3052 107.124 40.1901 105.875 40.5745C106.869 41.8593 108.532 43.9671 109.301 44.9268H106.42L103.346 40.8093H102.945V44.9268H100.655V34.5994L104.209 34.5994ZM102.945 39.0266H103.842C104.994 39.0266 105.86 38.6422 105.86 37.7418C105.86 36.9291 105.171 36.3847 104.147 36.3847H102.945L102.945 39.0266Z" fill="#DC1F26"/>
<path d="M119.505 38.7739L123.395 44.927H120.722L117.953 40.456L116.751 41.7692V44.927H114.462V34.5996H116.751V38.8333L120.529 34.5996H123.301L119.505 38.7739Z" fill="#DC1F26"/>
<path d="M131.778 34.5996C133.684 34.5996 135.973 35.4562 135.973 37.8013C135.973 40.1774 133.699 41.0314 131.778 41.0314H130.497V44.927H128.208V34.5996L131.778 34.5996ZM130.497 39.2461H131.41C132.628 39.2461 133.54 38.8771 133.54 37.8452C133.54 36.9293 132.802 36.3849 131.715 36.3849H130.497L130.497 39.2461Z" fill="#DC1F26"/>
<path d="M141.039 44.927V34.5996H143.328V43.1417H147.923V44.927L141.039 44.927Z" fill="#DC1F26"/>
<path d="M160.164 44.927L159.444 43.0102H155.458L154.704 44.927H152.159L156.738 34.5996H158.594L162.805 44.927H160.164ZM156.13 41.2816H158.803L157.507 37.8168H157.491L156.13 41.2816Z" fill="#DC1F26"/>
<path d="M172.933 43.2602C173.803 43.2502 174.644 42.9483 175.319 42.4037L176.601 43.9387C175.501 44.7076 174.184 45.1155 172.836 45.1048C169.475 45.1048 166.962 42.9196 166.962 39.7618C166.962 36.7382 169.634 34.4214 172.933 34.4214C174.153 34.4337 175.345 34.7811 176.377 35.425L175.272 37.0632C174.595 36.5635 173.777 36.2849 172.933 36.266C172.017 36.2479 171.131 36.5906 170.47 37.2186C169.81 37.8467 169.428 38.7087 169.41 39.6151C169.409 39.664 169.409 39.7129 169.41 39.7618C169.41 41.8283 170.74 43.2602 172.933 43.2602Z" fill="#DC1F26"/>
<path d="M181.73 44.927V34.5996H188.919V36.3849H184.02V38.7146H188.919V40.4999H184.02V43.1417H188.919V44.927L181.73 44.927Z" fill="#DC1F26"/>
<path d="M205.838 36.3849V44.927H203.547V36.3849H200.89V34.5996H208.495V36.3849H205.838Z" fill="#DC1F26"/>
<path d="M213.368 44.927V34.5996H220.557V36.3849H215.657V38.7146H220.557V40.4999H215.657V43.1417H220.557V44.927L213.368 44.927Z" fill="#DC1F26"/>
<path d="M231.659 43.2602C232.53 43.2502 233.371 42.9483 234.045 42.4037L235.328 43.9387C234.228 44.7072 232.912 45.1151 231.566 45.1048C228.202 45.1048 225.688 42.9196 225.688 39.7618C225.688 36.7382 228.361 34.4214 231.659 34.4214C232.879 34.4337 234.072 34.7811 235.104 35.425L233.998 37.0632C233.321 36.5635 232.504 36.2849 231.659 36.266C231.206 36.2571 230.755 36.3366 230.332 36.5C229.91 36.6635 229.524 36.9077 229.197 37.2187C228.87 37.5296 228.608 37.9013 228.426 38.3125C228.244 38.7237 228.146 39.1663 228.137 39.6151C228.136 39.664 228.136 39.7129 228.137 39.7618C228.137 41.8283 229.467 43.2602 231.659 43.2602Z" fill="#DC1F26"/>
<path d="M247.501 44.927V40.4999H242.745V44.927H240.456V34.5996H242.745V38.7146H247.501V34.5996H249.791V44.9271L247.501 44.927Z" fill="#DC1F26"/>
<path d="M263.214 44.927L258.074 38.4643V44.927H255.785V34.5996H257.803L262.989 41.0752V34.5996H265.279V44.927L263.214 44.927Z" fill="#DC1F26"/>
<path d="M276.673 45.1048C273.344 45.1048 270.799 42.7132 270.799 39.7618C270.799 36.813 273.344 34.4214 276.673 34.4214C279.99 34.4214 282.535 36.813 282.535 39.7618C282.535 42.7132 279.99 45.1048 276.673 45.1048ZM276.673 36.266C275.974 36.2413 275.284 36.4223 274.688 36.7861C274.093 37.1498 273.621 37.68 273.33 38.3095C273.04 38.9391 272.944 39.6398 273.056 40.323C273.168 41.0061 273.482 41.6411 273.959 42.1477C274.435 42.6542 275.053 43.0095 275.734 43.1686C276.415 43.3278 277.128 43.2836 277.783 43.0417C278.439 42.7999 279.007 42.3711 279.416 41.8097C279.825 41.2484 280.057 40.5795 280.082 39.8879C280.083 39.8459 280.084 39.8039 280.084 39.7618C280.101 39.3197 280.029 38.8786 279.874 38.4638C279.718 38.049 279.482 37.6685 279.178 37.3441C278.874 37.0197 278.508 36.7577 278.102 36.5732C277.695 36.3886 277.256 36.2851 276.809 36.2684C276.764 36.2667 276.719 36.2659 276.673 36.266V36.266Z" fill="#DC1F26"/>
<path d="M288.067 44.927V34.5996H290.357V43.1417H294.951V44.927L288.067 44.927Z" fill="#DC1F26"/>
<path d="M304.697 45.1048C301.365 45.1048 298.82 42.7132 298.82 39.7618C298.82 36.813 301.365 34.4214 304.697 34.4214C308.011 34.4214 310.556 36.813 310.556 39.7618C310.556 42.7132 308.011 45.1048 304.697 45.1048ZM304.697 36.266C303.998 36.2408 303.307 36.4213 302.712 36.7846C302.117 37.1479 301.644 37.6777 301.353 38.3071C301.062 38.9364 300.966 39.6371 301.077 40.3203C301.188 41.0036 301.502 41.6389 301.978 42.1458C302.455 42.6527 303.072 43.0085 303.753 43.1681C304.433 43.3278 305.147 43.2842 305.802 43.0428C306.458 42.8014 307.026 42.373 307.436 41.812C307.845 41.2509 308.077 40.5822 308.103 39.8906C308.104 39.8477 308.105 39.8048 308.105 39.7618C308.122 39.3196 308.051 38.8785 307.895 38.4636C307.739 38.0487 307.503 37.6682 307.199 37.3438C306.894 37.0195 306.529 36.7575 306.122 36.573C305.716 36.3885 305.276 36.285 304.83 36.2684C304.786 36.2668 304.741 36.266 304.697 36.266L304.697 36.266Z" fill="#DC1F26"/>
<path d="M321.499 40.7526V38.9673H326.48V42.9945C325.311 44.4393 323.533 45.1049 321.596 45.1049C318.204 45.1049 315.625 42.9352 315.625 39.7619C315.625 36.7382 318.298 34.4215 321.596 34.4215C322.482 34.4097 323.36 34.5852 324.173 34.9362C324.985 35.2873 325.712 35.8057 326.305 36.457L324.72 37.7263C324.332 37.2795 323.853 36.9185 323.315 36.6669C322.777 36.4153 322.191 36.2787 321.596 36.2661C320.68 36.248 319.794 36.5906 319.134 37.2187C318.473 37.8468 318.091 38.7088 318.073 39.6151C318.072 39.6641 318.072 39.713 318.073 39.7619C318.073 41.8284 319.468 43.2603 321.596 43.2603C322.549 43.256 323.468 42.9157 324.19 42.3005V40.7526H321.499Z" fill="#DC1F26"/>
<path d="M334.67 44.927V40.6031L331.101 34.5996H333.95L335.888 38.3173H335.919L338.031 34.5996H340.706L336.959 40.6624V44.927H334.67Z" fill="#DC1F26"/>
</svg>
