<svg id="Layer_1" data-name="Layer 1" xmlns="http://www.w3.org/2000/svg" viewBox="0 0 850.39368 124.1984"><defs><style>.cls-1{fill:#fff;}.cls-2{fill:#dc1f26;}</style></defs><path class="cls-1" d="M157.223,64.78828V13.93582h10.382V64.78828Z"/><path class="cls-1" d="M218.019,64.78828,194.70139,32.96519V64.78828H184.31294V13.93582h9.15035L217.00014,45.8234V13.93582H227.395V64.78828Z"/><path class="cls-1" d="M261.81683,21.92545c-3.48214,0-6.60966,1.74108-6.60966,5.08782,0,3.92066,4.79121,5.01045,8.71831,6.39042,7.19,2.46975,15.8374,5.81005,15.8374,16.48868,0,11.04619-10.38846,15.76645-19.2486,15.76645-7.84776,0-13.95445-2.97918-19.47432-8.49905l6.89984-6.758c4.13991,3.998,7.33834,6.39686,12.64541,6.39686,4.069,0,8.067-1.96678,8.067-6.4678,0-4.35915-4.65579-6.0293-9.81454-7.91869-6.60967-2.46976-14.01894-5.378-14.01894-15.10872,0-9.66622,8.20888-14.23817,16.637-14.23817,6.53873,0,11.69748,2.10219,16.85623,6.0293l-5.95837,7.40927C269.5163,24.105,265.73749,21.92545,261.81683,21.92545Z"/><path class="cls-1" d="M293.26593,64.78828V13.93582h10.38846V64.78828Z"/><path class="cls-1" d="M344.91156,44.23063V35.435h22.59537V55.27037c-5.30063,7.11909-13.36765,10.38845-22.15686,10.38845-15.3989,0-27.09638-10.67863-27.09638-26.29677,0-14.89591,12.136-26.29677,27.09638-26.29677,8.57644,0,15.76,3.55954,21.35727,10.02089l-7.19,6.24854c-3.55954-4.1399-8.35073-7.19-14.16723-7.19-9.22129,0-15.97925,7.55113-15.97925,17.21735,0,10.1692,6.31949,17.21736,15.97925,17.21736a17.40273,17.40273,0,0,0,11.76843-4.72671V44.23063Z"/><path class="cls-1" d="M415.3028,64.78828V42.99253H393.72629V64.78828h-10.3949V13.93582h10.3949V34.20329H415.3028V13.93582h10.382V64.78828Z"/><path class="cls-1" d="M459.74551,22.72506V64.78828h-10.382V22.72506h-12.0586V13.93582h34.50565v8.78924Z"/><path class="cls-1" d="M523.5271,18.00479c-6.24854,0-10.24658,2.97918-10.24658,7.9187,0,5.66173,6.758,7.40926,13.4386,9.879,6.61609,2.46975,13.22577,5.66174,13.22577,14.16724,0,11.40086-9.95,15.68907-17.21735,15.68907-7.19,0-12.64542-2.03771-17.86865-7.19l4.06253-3.63692c5.01687,5.08782,8.8666,5.88743,13.877,5.88743,5.81653,0,11.40729-3.05011,11.40729-9.879,0-6.10668-5.81006-8.35719-11.98767-10.67863-6.97724-2.61807-14.45743-5.22969-14.45743-13.51595,0-9.29866,6.89981-13.58043,14.89591-13.58043a24.12745,24.12745,0,0,1,15.1087,4.86213l-3.55957,3.9271C532.02618,19.67494,527.51868,18.00479,523.5271,18.00479Z"/><path class="cls-1" d="M571.83246,43.06346V64.78828h-5.378V42.051L550.90729,13.93577H557.517L569.57556,36.673h.21924l12.27783-22.73723h6.17761Z"/><path class="cls-1" d="M615.47552,18.00479c-6.24212,0-10.24011,2.97918-10.24011,7.9187,0,5.66173,6.758,7.40926,13.4386,9.879,6.60968,2.46975,13.2193,5.66174,13.2193,14.16724,0,11.40086-9.95,15.68907-17.21735,15.68907-7.19,0-12.639-2.03771-17.86865-7.19l4.069-3.63692c5.01044,5.08782,8.86017,5.88743,13.87708,5.88743,5.81,0,11.40088-3.05011,11.40088-9.879,0-6.10668-5.81006-8.35719-11.98121-10.67863-6.97723-2.61807-14.45739-5.22969-14.45739-13.51595,0-9.29866,6.89984-13.58043,14.88946-13.58043a24.11447,24.11447,0,0,1,15.10871,4.86213l-3.55957,3.9271C623.97461,19.67494,619.47357,18.00479,615.47552,18.00479Z"/><path class="cls-1" d="M663.194,18.87533V64.78828h-5.378V18.87533H644.67413V13.93582h31.67481v4.93951Z"/><path class="cls-1" d="M691.01263,64.78828V13.93582H720.5788v4.93951H696.39069V36.02176H720.5788v4.93951H696.39069v18.8875H720.5788v4.93951Z"/><path class="cls-1" d="M790.52515,64.78828h-5.37159V18.295L766.4079,64.78828h-3.998L743.89,18.43684V64.78828h-5.378V13.93582h9.29865l16.637,42.276,16.71436-42.276h9.36316Z"/><path class="cls-1" d="M825.60468,18.00479c-6.24207,0-10.24012,2.97918-10.24012,7.9187,0,5.66173,6.758,7.40926,13.43854,9.879,6.60968,2.46975,13.2193,5.66174,13.2193,14.16724,0,11.40086-9.95,15.68907-17.21735,15.68907-7.19,0-12.639-2.03771-17.86865-7.19l4.069-3.63692c5.01044,5.08782,8.86017,5.88743,13.87708,5.88743,5.81005,0,11.40088-3.05011,11.40088-9.879,0-6.10668-5.81006-8.35719-11.98121-10.67863-6.97723-2.61807-14.45739-5.22969-14.45739-13.51595,0-9.29866,6.89984-13.58043,14.88946-13.58043a24.11449,24.11449,0,0,1,15.10871,4.86213l-3.55957,3.9271C834.10376,19.67494,829.60272,18.00479,825.60468,18.00479Z"/><path class="cls-2" d="M112.75491,99.81126C100.097,67.10471,63.51878,41.58519,27.19408,36.49683a90.81578,90.81578,0,0,0-18.92021-.78676V49.75519a95.94414,95.94414,0,0,1,18.92021,1.96406c28.21773,5.68838,51.9097,23.72988,65.87709,48.092a101.68378,101.68378,0,0,1,7.73443,16.69831,21.771,21.771,0,0,0,14.24939-9.90372A71.63785,71.63785,0,0,0,112.75491,99.81126Z"/><path class="cls-2" d="M66.39757,99.81126a88.15984,88.15984,0,0,0-39.20349-34.5834A93.24106,93.24106,0,0,0,8.27387,58.95651V71.15322a96.30772,96.30772,0,0,1,18.92021,9.82789A95.77067,95.77067,0,0,1,48.0954,99.81126a98.06028,98.06028,0,0,1,11.45544,17.13529H74.33628A84.37632,84.37632,0,0,0,66.39757,99.81126Z"/><path class="cls-2" d="M118.00962,24.2423A21.898,21.898,0,0,0,96.56609,6.76671H30.161a21.65277,21.65277,0,0,0-2.92239.29385c-.01612.00284-.03034.00853-.04455.01043A21.77415,21.77415,0,0,0,8.47388,26.50211a89.56975,89.56975,0,0,1,18.7202-2.62c33.87626-1.32233,68.78006,15.57978,91.25964,41.98844V28.65386A22.00243,22.00243,0,0,0,118.00962,24.2423Z"/><path class="cls-2" d="M8.27387,82.0494v13.01c0,.09195.0256.17726.0256.26921A21.87244,21.87244,0,0,0,30.161,116.94655h7.54107A90.52321,90.52321,0,0,0,8.27387,82.0494Z"/><path class="cls-1" d="M183.03616,102.36251h.07691l4.6461-16.4184h6.29308l-7.908,25.653h-5.58815l-4.99858-16.86058h-.0769l-5.15879,16.86058h-5.38949l-7.70934-25.653h6.29308l4.52435,16.41839h.08331L173.039,85.94411h5.27414Z"/><path class="cls-1" d="M219.37839,112.03925c-8.18357,0-14.43819-5.94062-14.43819-13.27187,0-7.32483,6.25462-13.26545,14.43819-13.26545,8.15153,0,14.40614,5.94062,14.40614,13.26545C233.78453,106.09863,227.52991,112.03925,219.37839,112.03925Zm0-21.95529a8.69216,8.69216,0,1,0,8.37671,8.99656q.00558-.15651.00552-.31314a8.36872,8.36872,0,0,0-8.04813-8.67748q-.167-.00628-.3341-.0059Z"/><path class="cls-1" d="M256.12433,85.94411c4.44745,0,10.07406,2.1276,10.07406,7.69653,0,3.99245-2.90942,6.19054-5.97906,7.1454,2.44162,3.1914,6.53018,8.42709,8.42068,10.811h-7.08132l-7.55555-10.22785h-.98689V111.597h-5.6266V85.944ZM253.01624,96.941h2.20449c2.83252,0,4.96012-.95485,4.96012-3.1914,0-2.01864-1.69184-3.37082-4.21035-3.37082h-2.95428Z"/><path class="cls-1" d="M293.71619,96.313l9.56137,15.28411h-6.56864l-6.80575-11.10582-2.95429,3.26189v7.84392h-5.62661V85.9441h5.62661V96.46035l9.2858-10.51624h6.81216Z"/><path class="cls-1" d="M323.88065,85.94411c4.68457,0,10.31115,2.1276,10.31115,7.95287,0,5.90216-5.58816,8.02335-10.31115,8.02335H320.7341v9.67673h-5.62659v-25.653ZM320.73413,97.4857h2.243c2.99274,0,5.23569-.91641,5.23569-3.47978,0-2.275-1.81357-3.62717-4.4859-3.62717h-2.99274Z"/><path class="cls-1" d="M346.6434,111.59706v-25.653H352.27v21.21832h11.29166V111.597Z"/><path class="cls-1" d="M393.64926,111.59706l-1.76874-4.76146H382.082l-1.852,4.76146h-6.25464l11.25321-25.653h4.5628l10.34961,25.653Zm-9.91385-9.05511h6.56864l-3.185-8.60652h-.03845Z"/><path class="cls-1" d="M425.03134,107.45722a9.44516,9.44516,0,0,0,5.86371-2.1276l3.15295,3.813a15.82668,15.82668,0,0,1-9.25378,2.89663c-8.26047,0-14.4382-5.42795-14.4382-13.27187,0-7.51068,6.56863-13.26545,14.67532-13.26545a16.18074,16.18074,0,0,1,8.46555,2.49288l-2.71717,4.06936a9.99013,9.99013,0,0,0-5.74835-1.98021,8.49033,8.49033,0,0,0-8.65832,8.31893q-.00362.18223.00055.36449C416.37354,103.90054,419.64185,107.45722,425.03134,107.45722Z"/><path class="cls-1" d="M446.65338,111.59706v-25.653h17.668V90.3787H452.28v5.78681h12.04144v4.43464H452.28v6.56223h12.04144V111.597Z"/><path class="cls-1" d="M505.90573,90.37875v21.21831h-5.633V90.37875h-6.53019V85.94411h18.69336v4.43464Z"/><path class="cls-1" d="M524.41327,111.59706v-25.653h17.668V90.3787H530.03986v5.78681H542.0813v4.43464H530.03986v6.56223H542.0813V111.597Z"/><path class="cls-1" d="M569.36841,107.45722a9.44516,9.44516,0,0,0,5.86371-2.1276l3.153,3.813a15.82129,15.82129,0,0,1-9.24737,2.89663c-8.26691,0-14.44458-5.42795-14.44458-13.27187,0-7.51068,6.56866-13.26545,14.67529-13.26545a16.18074,16.18074,0,0,1,8.46551,2.49288l-2.71716,4.06936a9.99009,9.99009,0,0,0-5.74835-1.98021,8.49036,8.49036,0,0,0-8.65833,8.319q-.00366.18221.00055.36446C560.71063,103.90054,563.97894,107.45722,569.36841,107.45722Z"/><path class="cls-1" d="M608.306,111.59706V100.6002H596.617v10.99685h-5.62658v-25.653H596.617V96.16556h11.689V85.94411h5.62659v25.653Z"/><path class="cls-1" d="M646.92328,111.59706,634.2923,95.544v16.05311h-5.62659v-25.653h4.96014l12.7464,16.08518V85.94411h5.62659v25.653Z"/><path class="cls-1" d="M680.00354,112.03925c-8.18353,0-14.43817-5.94062-14.43817-13.27187,0-7.32483,6.25464-13.26545,14.43817-13.26545,8.15155,0,14.40619,5.94062,14.40619,13.26545C694.40973,106.09863,688.15509,112.03925,680.00354,112.03925Zm0-21.95529a8.69216,8.69216,0,1,0,8.37665,8.99659q.00558-.15653.00555-.31317a8.36867,8.36867,0,0,0-8.04809-8.67748q-.167-.00628-.33411-.0059Z"/><path class="cls-1" d="M708.00842,111.59706v-25.653H713.635v21.21832h11.29163V111.597Z"/><path class="cls-1" d="M748.88141,112.03925c-8.19,0-14.44458-5.94062-14.44458-13.27187,0-7.32483,6.25464-13.26545,14.44458-13.26545,8.14508,0,14.39972,5.94062,14.39972,13.26545C763.28113,106.09863,757.02649,112.03925,748.88141,112.03925Zm0-21.95529a8.6924,8.6924,0,1,0,8.37,9.00324q.00578-.15984.00574-.31982a8.37007,8.37007,0,0,0-8.0509-8.67752q-.16233-.00609-.32489-.00586Z"/><path class="cls-1" d="M790.17731,101.22822V96.79359h12.24011v10.00356c-2.871,3.58872-7.24152,5.2421-12.003,5.2421-8.33734,0-14.67529-5.38951-14.67529-13.27187,0-7.51068,6.56866-13.26545,14.67529-13.26545A15.30544,15.30544,0,0,1,801.988,90.55819l-3.8963,3.15294a10.4134,10.4134,0,0,0-7.67731-3.62717,8.49037,8.49037,0,0,0-8.65833,8.31893q-.00366.18223.00055.36449c0,5.13316,3.42853,8.68984,8.65778,8.68984a9.83769,9.83769,0,0,0,6.3764-2.38394v-3.84506Z"/><path class="cls-1" d="M822.54633,111.59706V100.85653l-8.77314-14.91242h7.0044l4.76147,9.23455h.07691l5.19085-9.23455h6.575l-9.20893,15.05982v10.59313Z"/></svg>